<svg xmlns="http://www.w3.org/2000/svg" version="1.2" baseprofile="tiny" width="1000" height="1026" viewbox="0 0 1000 1026" strokelinecap="round" strokelinejoin="round" viewBox="397.9590148925781 333.1780090332031 233.23001098632812 118.718994140625"><style type="text/css">&lt;style type="text/css"&gt;
         g.comuni { fill:#eee; stroke-width:0.4; stroke-linecap:square; stroke-linejoin:bevel; stroke-miterlimit:3; stroke-opacity:1; stroke:#888; fill-opacity:1; }
         g.province { fill:none; stroke-width:0.7; stroke-linecap:square; stroke-linejoin:bevel; stroke-miterlimit:3; stroke-opacity:1; stroke:#444; fill-opacity:1; }
         g.regioni { fill:none; stroke-width:1; stroke-linecap:square; stroke-linejoin:bevel; stroke-miterlimit:3; stroke-opacity:1; stroke:#000; fill-opacity:1; }
       &lt;/style&gt;</style><g id="Tricarico">
 <path d="M 599.836 365.798 599.601 366.139 599.452 366.333 599.352 366.495 599.245 366.762 599.134 367.078 599.016 367.411 598.849 367.873 598.744 368.17 598.848 368.31 599.022 368.467 599.222 368.596 599.439 368.728 599.793 368.838 600.05 368.929 600.216 369.058 600.402 369.303 600.562 369.597 600.695 370.037 600.737 370.433 600.738 370.876 600.753 371.192 600.741 371.547 600.722 371.734 600.576 372.061 600.458 372.285 600.258 372.593 600.139 372.805 599.956 373.04 599.851 373.242 599.708 373.517 599.842 373.634 600.059 373.905 600.266 374.122 600.537 374.294 600.738 374.426 600.947 374.562 601.081 374.69 601.293 374.774 601.517 374.811 601.663 374.991 601.866 375.163 602.07 375.332 602.276 375.541 602.468 375.764 602.667 375.97 602.888 376.171 603.216 376.435 603.534 376.666 603.858 376.769 604.28 376.872 604.669 376.949 605.012 377.11 605.357 377.396 605.559 377.656 605.733 377.939 605.865 378.239 606.076 378.419 606.293 378.58 606.783 378.826 607.11 378.848 607.323 378.731 607.454 378.28 607.383 377.986 607.364 377.7 607.373 377.414 607.371 377.169 607.38 376.971 607.444 376.736 607.592 376.527 607.781 376.366 608.046 376.142 608.218 375.944 608.44 375.768 608.72 375.731 608.91 375.808 609.025 375.984 609.121 376.208 609.165 376.417 609.23 376.622 609.412 376.897 609.579 377.077 609.831 377.209 610.045 377.187 610.171 376.883 610.211 376.703 610.244 376.432 610.296 376.127 610.268 375.812 610.255 375.533 610.25 375.339 610.203 375.101 610.177 374.917 610.136 374.749 610.178 374.613 610.219 374.276 610.324 374.074 610.453 373.88 610.587 373.59 610.676 373.264 610.751 372.967 610.898 372.622 611.08 372.263 611.232 372.017 611.511 371.665 611.746 371.434 611.967 371.199 612.196 370.887 612.439 370.568 612.626 370.169 612.786 369.806 612.934 369.483 613.086 369.219 613.267 368.959 613.384 368.849 613.557 368.779 613.757 368.882 613.871 369.05 613.926 369.208 614.135 369.549 614.184 369.74 614.425 369.923 614.567 370.051 614.839 370.143 615.08 370.304 615.255 370.491 615.319 370.671 615.371 370.906 615.419 371.166 615.46 371.438 615.516 371.716 615.618 371.929 615.757 372.112 615.958 372.252 616.141 372.329 616.332 372.435 616.477 372.6 616.61 372.813 616.746 372.981 616.831 373.132 616.9 373.275 616.904 373.722 616.943 374.008 616.908 374.261 616.916 374.595 616.961 374.917 617.056 375.244 617.16 375.566 617.368 376.01 617.605 376.468 617.744 376.776 617.904 377.147 618.103 377.583 618.248 377.968 618.434 378.434 618.59 378.874 618.749 379.141 618.868 379.592 618.823 380.01 618.632 380.245 618.398 380.37 618.137 380.439 617.845 380.498 617.573 380.619 617.338 380.85 617.19 381.066 616.998 381.389 616.91 381.704 616.857 381.932 616.834 382.214 616.857 382.456 616.973 382.625 617.158 382.746 617.571 382.746 617.804 382.812 618.078 382.918 618.348 382.995 618.721 383.153 618.976 383.322 619.27 383.516 619.563 383.696 619.867 383.813 620.128 383.967 620.382 384.224 620.613 384.466 620.795 384.653 620.88 384.821 620.816 384.961 620.601 385.056 620.208 385.133 619.8 385.214 619.396 385.353 619.04 385.54 618.666 385.793 618.315 386.174 617.972 386.438 617.667 386.717 617.639 386.743 617.246 386.941 616.838 387.124 616.551 387.252 616.189 387.465 615.946 387.582 615.789 387.439 615.732 387.34 615.662 387.219 615.478 387.106 615.195 387.172 614.9 387.278 614.595 387.454 614.271 387.795 613.961 388.11 613.632 388.481 613.362 388.638 613.175 388.51 613.016 388.118 613.043 387.648 613.062 387.392 613.124 387.113 613.214 386.805 613.324 386.471 613.364 386.196 613.262 385.892 613.05 385.914 612.809 386.064 612.595 386.174 612.284 386.372 611.321 386.75 610.948 386.812 610.622 386.688 610.465 386.438 610.509 386.215 610.773 385.965 610.867 385.731 610.618 385.668 610.145 385.753 609.848 385.624 609.586 385.456 609.151 385.258 608.699 385.335 608.365 385.646 608.164 386.035 607.912 386.563 607.666 387.058 607.462 387.428 607.193 387.711 606.855 387.733 606.483 387.678 606.214 387.432 605.959 387.036 605.794 386.567 605.724 386.204 605.489 385.885 605.25 385.764 604.989 385.811 604.953 386.152 605.073 386.49 605.248 386.783 605.352 387.018 605.331 387.359 605.139 387.579 604.85 387.56 604.527 387.362 604.22 387.208 603.712 387.227 603.429 387.41 603.259 387.619 602.991 387.791 602.64 387.854 601.986 387.461 601.805 387.069 601.477 387.032 601.458 387.3 601.39 387.601 601.171 387.535 601.019 387.351 601.015 387.08 600.949 386.871 600.875 386.655 600.75 386.552 600.524 386.581 600.391 386.702 600.288 386.922 600.207 387.135 600.052 387.241 599.818 387.271 599.579 387.238 599.419 387.175 599.289 387.315 599.277 387.575 599.322 387.802 599.323 388.03 599.315 388.22 599.277 388.433 599.213 388.576 599.09 388.719 598.93 388.862 598.627 389.06 598.398 389.067 598.19 389.038 598.049 388.928 597.931 388.715 597.759 388.462 597.611 388.147 597.34 387.736 596.909 387.271 596.51 387.153 596.136 387.073 595.838 387.153 595.675 387.461 595.708 387.85 595.805 388.07 595.861 388.349 595.866 388.627 595.59 388.906 595.374 388.906 595.155 388.928 594.909 388.88 594.88 388.572 594.91 388.356 594.814 388.154 594.556 388.048 594.277 388.059 593.96 387.986 593.815 387.89 593.541 387.762 593.372 387.898 593.319 388.103 593.114 388.22 592.845 388.18 592.589 388.217 592.474 388.36 592.438 388.789 592.548 388.91 592.698 389.053 592.996 389.086 593.176 389.339 593.025 389.518 592.815 389.562 592.642 389.529 592.488 389.438 592.281 389.309 592.057 389.394 591.703 389.603 591.52 389.738 591.294 389.841 591.27 389.852 591.065 389.995 590.904 390.12 590.649 390.27 590.5 390.259 590.192 390.171 589.924 390.145 589.739 390.134 589.443 390.354 589.215 390.585 589.08 390.86 588.972 391.124 588.818 391.454 588.691 391.861 588.502 392.448 588.364 392.789 588.215 393.097 588.078 393.365 587.898 393.658 587.598 394.003 587.326 394.116 587.038 394.248 586.716 394.278 586.418 394.366 586.048 394.67 585.515 394.824 585.218 394.927 584.952 395.246 584.87 395.66 584.797 396.012 584.61 396.416 584.459 396.676 584.303 396.856 584.079 397.043 583.869 397.101 583.664 397.233 583.275 397.505 582.945 397.629 582.467 397.758 582.072 397.816 581.689 397.827 581.412 397.882 581.068 397.915 580.879 397.758 580.74 397.56 580.592 397.439 580.331 397.285 580.134 397.321 579.993 397.838 579.946 398.234 579.925 398.678 580.046 398.946 580.407 399.045 580.696 399.173 581.134 399.415 581.513 399.672 581.847 399.921 582.111 400.108 582.759 400.625 582.956 400.805 583.163 401.032 583.349 401.263 583.547 401.56 583.733 401.919 583.808 402.15 583.819 402.4 583.849 402.744 583.885 403.038 583.874 403.316 583.828 403.72 583.819 404.119 583.831 404.515 583.842 404.9 583.866 405.252 583.846 405.711 583.796 406.048 583.89 406.462 584.002 406.803 584.032 407.141 583.988 407.46 583.917 407.819 583.878 408.34 583.963 408.718 584.116 409.114 584.262 409.524 584.342 409.829 584.378 410.129 584.276 410.474 584.025 410.797 584.002 411.116 584.019 411.266 584.202 411.438 584.445 411.541 584.72 411.684 584.928 411.922 585.005 412.183 585.104 412.553 585.475 413.22 585.235 413.385 585.171 413.616 584.933 414.005 584.754 414.408 584.596 414.573 584.414 414.727 584.123 414.892 583.807 415.017 583.484 415.16 583.198 415.296 582.951 415.485 582.899 415.526 582.799 415.604 582.508 415.89 582.316 416.205 582.111 416.561 581.964 416.997 581.879 417.375 581.751 417.767 581.672 418.009 581.585 418.258 581.416 418.379 581.253 418.361 581.087 418.115 580.816 418.126 580.757 418.335 580.682 418.533 580.572 418.761 580.405 419.025 580.231 419.281 580.014 419.56 579.759 419.821 579.57 420.085 579.329 420.338 578.994 420.73 578.825 421.06 578.73 421.255 578.682 421.357 578.631 421.463 578.567 421.537 578.384 421.742 577.902 422.134 577.55 422.395 577.214 422.552 576.98 422.783 576.805 423.029 576.632 423.315 576.437 423.586 576.178 423.916 575.919 424.228 575.671 424.481 575.456 424.679 575.261 424.855 575.13 425.101 575.028 425.427 574.931 425.647 574.792 425.878 574.66 425.992 574.472 426.047 574.303 426.065 574.102 426.036 573.958 425.988 573.647 425.97 573.297 426.054 572.947 425.878 572.737 425.717 572.475 425.548 572.114 425.346 571.837 425.068 571.622 424.848 571.325 424.749 571.115 424.771 570.908 424.881 570.809 425.057 570.715 425.31 570.691 425.486 570.62 425.735 570.487 426.054 570.34 426.292 570.196 426.45 569.991 426.575 569.768 426.652 569.504 426.677 569.187 426.696 568.984 426.637 568.716 426.516 568.442 426.38 568.223 426.307 567.853 426.182 567.45 426.017 566.905 425.827 566.42 425.75 566.039 425.684 565.562 425.618 565.108 425.559 564.742 425.504 564.408 425.372 564.056 425.174 563.708 424.954 563.301 424.73 563.042 424.609 562.707 424.463 562.348 424.287 561.937 424.202 561.503 423.997 561.404 423.858 561.265 423.77 561.069 423.704 560.809 423.674 560.524 423.718 560.275 423.751 559.99 423.784 559.784 423.806 559.565 423.843 559.227 423.858 558.825 423.828 558.562 423.847 558.339 423.935 558.009 424.081 557.733 424.257 557.39 424.301 557.142 424.14 556.928 424.03 556.724 423.839 556.616 423.682 556.555 423.429 556.437 423.209 556.243 423.066 556.034 423.051 555.946 423.229 555.969 423.491 555.966 423.773 555.927 424.07 555.94 424.261 555.991 424.455 556.061 424.628 556.144 424.763 556.259 424.932 556.266 425.141 556.217 425.387 556.094 425.64 555.931 425.761 555.659 425.757 555.353 425.706 554.924 425.687 554.594 425.621 554.233 425.515 553.941 425.46 553.783 425.31 553.586 425.137 553.363 425.101 553.053 425.332 552.982 425.577 552.914 425.981 552.888 426.248 552.891 426.402 552.666 426.457 552.498 426.38 552.21 426.289 551.982 426.274 551.772 426.34 551.483 426.443 551.276 426.435 550.941 426.399 550.744 426.41 550.467 426.666 550.431 427.015 550.417 427.451 550.427 427.711 550.511 427.979 550.628 428.272 550.745 428.47 550.866 428.639 551.007 428.859 551.103 429.178 551.183 429.482 551.305 429.864 551.334 430.186 551.441 431.198 551.541 431.481 551.713 431.829 551.748 432.115 551.793 432.46 551.785 432.786 551.639 433.127 551.532 433.281 551.424 433.542 551.387 433.758 551.352 433.989 551.391 434.253 551.43 434.598 551.483 434.939 551.469 435.28 551.35 435.584 551.288 435.682 551.165 435.875 551.15 435.899 551.064 436.039 550.878 436.347 550.685 436.64 550.454 436.937 550.305 437.146 549.832 437.348 549.582 437.381 549.333 437.392 548.904 437.377 548.55 437.384 547.995 437.476 547.645 437.52 547.269 437.538 546.936 437.63 546.662 437.839 546.445 438.114 546.184 438.37 546.148 438.407 545.916 438.466 545.536 438.642 545.115 438.737 544.748 438.774 544.484 438.792 544.164 438.866 543.906 438.896 543.827 438.906 543.546 438.895 543.241 438.851 542.861 438.807 542.713 438.71 542.637 438.66 542.545 438.506 542.465 438.312 542.397 438.059 542.295 437.887 542.213 437.755 541.327 437.755 540.988 437.769 540.488 437.993 540.03 438.198 539.673 438.378 539.098 438.704 537.349 439.577 536.144 440.127 535.861 440.246 535.373 440.452 535.271 440.496 534.963 440.625 534.727 440.725 534.653 440.76 533.433 441.359 532.721 441.758 531.984 442.169 530.9 442.833 529.891 443.313 529.488 443.662 529.021 444.179 528.72 444.531 528.417 444.85 528.23 445.128 528.041 445.4 527.767 445.469 527.459 445.392 527.245 445.304 526.983 445.242 526.436 445.447 526.034 445.521 525.662 445.466 525.443 445.29 525.167 445.018 524.927 444.85 524.619 444.769 524.057 444.754 523.7 444.831 523.389 445.029 523.145 445.239 523.061 445.312 522.835 445.565 522.591 445.876 522.423 446.122 522.243 446.496 522.096 446.848 521.919 447.281 521.856 447.75 521.802 448.256 521.651 448.751 521.475 449.096 521.353 449.239 521.093 449.338 520.718 449.474 520.261 449.474 520.202 449.493 519.993 449.562 519.819 449.58 519.557 449.65 519.294 449.69 518.747 449.778 518.331 449.961 518 450.09 516.838 449.925 516.444 449.782 516.137 449.602 515.754 449.4 515.407 449.349 515.101 449.342 514.59 449.309 514.522 449.297 514.147 449.228 513.89 449.239 513.671 449.485 513.405 449.708 513.167 450.115 513.047 450.31 513.014 450.658 512.983 450.971 512.82 450.973 512.609 451.12 512.404 451.358 512.231 451.531 511.909 451.791 511.606 451.897 511.398 451.765 511.357 451.479 511.384 451.234 511.359 450.977 511.219 450.981 511.057 451.109 510.843 451.303 510.578 451.417 510.288 451.516 509.928 451.63 509.428 451.784 509.187 451.696 508.977 451.542 508.806 451.329 508.557 451.021 508.387 450.808 508.258 450.651 508.114 450.581 507.862 450.478 507.728 450.438 507.493 450.453 507.33 450.464 507.108 450.442 506.901 450.222 506.74 449.914 506.666 449.69 506.644 449.47 506.319 449.191 506.065 449.125 505.831 449.023 505.761 448.784 505.731 448.535 505.587 448.377 505.437 448.333 505.163 448.22 505.006 448.084 504.869 447.908 504.724 447.417 504.74 447.222 504.793 446.91 504.65 446.771 504.502 446.657 504.298 446.58 503.964 446.562 503.756 446.448 503.494 446.181 503.37 445.983 503.26 445.656 503.088 445.513 502.705 445.312 502.415 445.161 502.18 445.081 501.985 445.139 501.797 445.381 501.618 445.495 501.472 445.418 501.361 445.194 501.332 444.985 501.31 444.773 501.331 444.542 501.316 444.314 501.106 443.944 500.921 443.713 500.661 443.398 500.432 443.163 500.197 442.95 499.903 442.771 499.512 442.65 499.238 442.536 498.983 442.576 498.777 442.826 498.588 442.734 498.47 442.529 498.31 442.254 498.102 441.993 497.855 441.722 497.417 441.256 496.803 440.695 496.574 440.593 496.347 440.739 496.148 440.842 495.827 440.798 495.47 440.743 495.121 440.816 494.913 440.926 494.62 441.146 494.404 441.348 494.21 441.425 493.943 441.509 493.791 441.674 493.629 441.77 493.515 441.645 493.392 441.429 493.266 441.322 493.087 441.297 492.936 441.271 492.731 441.179 492.564 441.11 492.388 441.003 492.171 440.864 491.951 440.549 491.931 440.255 491.97 440.065 491.913 439.768 491.782 439.694 491.567 439.79 491.59 440.032 491.55 440.296 491.372 440.182 491.24 439.977 491.071 440.2 490.969 440.325 490.757 440.354 490.579 440.347 490.403 440.153 490.308 439.841 490.238 439.669 490.023 439.551 489.736 439.562 489.549 439.636 489.283 439.654 488.99 439.467 488.81 439.188 488.566 439.082 488.405 438.998 488.083 439.042 487.819 439.082 487.574 439.141 487.398 439.177 487.199 439.049 487.013 438.935 486.875 438.802 486.824 438.752 486.643 438.58 486.643 438.385 486.801 438.308 486.929 438.242 486.965 438.026 486.817 437.887 486.584 437.821 486.312 437.751 486.132 437.692 485.938 437.557 485.838 437.392 485.783 437.014 485.723 436.794 485.547 436.794 485.391 436.676 485.349 436.489 485.365 436.196 485.21 436.093 485.107 435.98 485.148 435.837 485.344 435.565 485.227 435.25 485.16 435.026 485.051 434.737 484.99 434.498 484.923 434.267 484.277 434.165 484.089 433.934 483.932 433.721 483.717 433.472 483.543 433.336 483.445 432.749 483.761 432.617 483.809 432.335 483.734 431.987 483.534 431.66 483.318 431.429 483.053 431.213 482.871 431.026 482.606 430.824 482.467 430.509 482.467 430.19 482.503 429.856 482.509 429.508 482.535 429.138 482.429 428.885 482.202 428.709 481.838 428.445 481.546 428.283 481.292 428.137 481.068 427.975 480.908 427.704 480.921 427.44 480.937 426.714 480.698 425.618 480.551 425.302 480.434 425.108 480.081 424.668 479.713 424.473 479.497 424.132 479.439 423.813 479.378 423.359 479.08 423.142 478.73 423.168 478.45 423.076 478.258 422.963 477.953 422.71 477.784 422.596 476.426 421.951 476.114 421.819 475.759 421.804 475.31 421.727 474.931 421.694 474.587 421.734 474.333 421.793 474.058 421.863 473.752 421.921 473.349 421.969 472.953 421.991 472.361 421.558 472.026 421.617 471.762 421.635 471.353 421.599 470.98 421.529 470.722 421.434 470.428 421.232 470.173 420.986 470.087 420.792 470.023 420.502 469.942 420.301 469.809 420.176 469.602 420.073 469.418 419.967 468.741 419.652 468.435 419.516 468.141 419.292 468 418.977 467.798 418.621 467.69 418.321 467.622 417.987 467.516 417.514 467.365 417.133 467.254 416.806 467.155 416.44 466.997 416.066 466.844 415.662 466.706 415.259 466.456 414.87 466.208 414.467 466.026 414.173 465.768 413.748 465.586 413.466 465.4 413.139 465.216 412.835 465.071 412.622 464.918 412.435 464.681 412.318 464.634 412.317 464.527 412.314 464.501 412.311 464.398 412.307 464.375 411.735 464.459 411.486 464.515 411.302 464.652 411.035 464.75 410.851 464.857 410.595 464.943 410.224 464.981 409.905 465.036 409.546 465.013 409.194 465.003 408.835 464.825 408.387 464.757 408.156 464.689 408.021 464.551 407.742 464.421 407.559 464.367 407.416 464.572 407.181 464.806 406.928 465.098 406.671 465.367 406.514 465.593 406.462 465.781 406.418 465.958 406.415 466.112 406.389 466.265 406.356 466.686 406.253 467.054 406.132 467.438 406.03 467.733 405.828 467.96 405.678 468.15 405.348 468.232 405.128 468.265 404.86 468.291 404.578 468.309 403.661 468.272 403.228 468.186 402.931 468.05 402.586 468.023 402.198 468.046 401.886 468.114 401.681 468.219 401.387 468.18 401.145 468.043 400.859 467.913 400.493 467.879 400.185 467.926 399.796 467.977 399.47 467.906 399.297 467.793 399.165 467.706 398.854 467.869 398.641 467.963 398.395 467.979 397.831 467.986 397.57 467.955 397.2 467.842 396.841 467.718 396.555 467.693 396.063 467.795 395.532 467.938 394.916 468.089 394.538 468.328 394.047 468.569 393.669 468.924 393.167 469.556 392.474 469.86 392.045 470.36 391.59 470.598 391.3 471.041 390.974 471.748 390.64 472.072 390.402 472.375 390.306 472.607 390.255 472.75 390.281 473.451 390.398 473.999 390.545 474.664 390.651 475.172 390.75 475.579 390.878 475.848 391.124 476.032 391.121 476.21 391.154 476.372 391.223 476.576 391.304 476.688 391.421 476.965 391.366 477.272 391.227 477.455 391.187 477.78 391.088 478.051 390.945 478.285 390.827 478.32 390.812 478.493 390.735 478.686 390.644 478.883 390.504 479.13 390.325 479.312 390.2 479.508 390.039 479.668 389.888 479.834 389.723 479.948 389.566 480.075 389.375 480.144 389.25 480.199 389.151 480.383 388.902 480.516 388.686 480.593 388.546 480.902 388.425 481.269 388.385 481.58 388.4 481.854 388.425 482.138 388.451 482.338 388.356 482.475 388.213 482.577 387.993 482.631 387.78 482.668 387.571 482.698 387.362 482.724 387.201 482.737 386.977 482.74 386.79 482.755 386.592 482.742 386.416 482.714 386.211 482.682 386.057 482.646 385.859 482.613 385.708 482.543 385.433 482.558 384.777 482.472 384.377 482.437 384.212 482.879 384.3 483.311 384.249 483.817 384.113 483.884 384.097 484.025 384.061 484.231 384.011 484.602 383.912 484.939 383.879 485.237 383.816 485.654 383.871 485.847 383.787 486.002 383.666 486.215 383.651 486.414 383.651 486.617 383.714 486.767 383.644 486.923 383.552 487.098 383.406 487.554 383.369 487.722 383.244 487.857 383.068 487.988 382.823 488.152 382.515 488.346 382.229 488.661 381.979 488.951 381.899 489.164 381.671 489.27 381.506 489.464 381.334 489.767 381.224 490.211 381.125 490.46 381.074 490.866 380.993 491.702 380.905 492.016 380.758 492.331 380.516 492.577 380.322 492.918 379.93 493.106 379.754 493.371 379.53 493.603 379.365 493.932 379.321 494.207 379.347 494.499 379.288 494.686 379.233 494.933 379.075 495.029 378.951 495.14 378.848 495.327 378.679 495.435 378.536 495.574 378.39 495.864 378.111 496.378 377.652 496.651 377.311 496.958 376.948 497.052 376.809 497.373 376.435 497.655 376.039 498.2 375.808 498.495 375.573 498.703 375.273 498.666 375.053 498.667 374.855 498.754 374.715 498.985 374.536 499.393 374.25 499.662 374.092 499.882 373.846 500.014 373.608 500.123 373.285 500.33 372.944 500.639 372.724 501.148 372.299 501.989 371.635 502.138 371.448 502.279 371.247 502.408 370.979 502.504 370.752 502.594 370.561 502.705 370.348 502.872 370.099 502.999 369.919 503.149 369.718 503.322 369.567 503.51 369.399 503.711 369.201 503.846 369.028 503.914 368.931 504.024 368.706 504.122 368.515 504.27 368.328 504.477 368.211 504.619 368.134 504.772 367.991 504.945 367.822 505.088 367.657 505.241 367.404 505.286 367.202 505.321 366.964 505.337 366.766 505.398 366.469 505.443 366.26 505.54 366.055 505.667 365.867 505.845 365.673 506.039 365.376 506.144 365.193 506.385 364.822 506.758 364.236 507.162 363.788 507.343 363.524 507.53 363.231 507.749 362.861 507.969 362.527 508.19 362.197 508.365 361.955 508.53 361.783 508.726 361.629 509.003 361.445 509.164 361.332 509.378 361.244 509.563 361.222 509.716 361.196 509.901 361.09 510.039 360.859 510.142 360.635 510.203 360.122 510.33 360.034 510.538 360.063 510.685 360.151 510.815 360.213 510.956 360.221 511.214 360.114 511.317 359.876 511.381 359.645 511.46 359.52 511.557 359.41 511.782 359.253 511.933 359.201 512.084 359.139 512.22 359.08 512.385 359.007 512.659 358.915 512.829 358.901 513.016 358.838 513.166 358.761 513.4 358.633 513.7 358.479 513.893 358.402 514.073 358.314 514.37 358.131 514.58 357.962 514.683 357.867 514.858 357.724 515.042 357.606 515.229 357.526 515.433 357.482 515.669 357.504 515.793 357.584 515.964 357.705 516.092 357.845 516.244 357.812 516.486 357.676 516.716 357.691 516.926 357.742 517.44 357.812 517.841 357.944 518.174 357.958 518.505 357.944 518.895 357.94 519.149 357.98 519.38 358.112 519.633 358.252 519.784 358.299 519.983 358.409 520.121 358.483 520.297 358.464 520.545 358.329 520.753 358.431 520.993 358.384 520.996 358.23 521.032 357.991 521.091 357.669 521.157 357.342 521.223 357.005 521.314 356.726 521.429 356.349 521.521 356.085 521.671 355.791 521.78 355.454 521.92 354.66 521.939 354.548 522.143 353.643 522.267 352.975 522.323 352.608 522.332 352.41 522.365 352.143 522.332 351.864 522.31 351.549 522.282 351.255 522.113 350.401 521.954 349.594 521.884 349.228 521.875 349.18 521.817 348.879 521.718 348.612 521.616 348.205 521.43 347.768 521.372 347.593 521.17 346.984 520.86 345.799 520.791 345.451 520.764 345.268 520.717 344.586 520.657 343.819 520.68 343.603 520.701 343.284 520.704 343.108 520.708 342.947 520.699 342.807 520.683 342.584 520.665 342.426 520.695 342.224 520.782 341.982 520.866 341.813 520.943 341.637 521.007 341.494 521.047 341.417 521.098 341.315 521.223 341.087 521.338 340.834 521.43 340.666 521.481 340.59 521.57 340.457 521.651 340.339 521.78 340.185 521.897 340.05 522.02 339.91 522.14 339.819 522.401 339.654 522.535 339.573 522.672 339.423 522.745 339.291 522.741 338.93 523.005 338.906 523.165 338.759 523.296 338.62 523.379 338.436 523.476 338.132 523.574 337.941 523.658 337.655 523.703 337.241 523.528 336.735 523.349 336.266 523.183 335.895 522.981 335.54 522.877 335.191 522.95 334.869 523.414 334.733 523.736 334.696 524.184 334.777 524.62 334.894 524.88 335.034 525.026 335.118 525.192 335.056 525.392 334.634 525.551 334.157 525.708 333.765 525.905 333.508 526.328 333.34 526.712 333.34 527.223 333.468 527.64 333.633 527.984 333.809 528.304 333.732 528.713 333.567 529.191 333.325 529.535 333.178 529.961 333.362 530.214 333.721 530.392 334.157 530.296 334.579 530.051 334.891 529.805 335.063 529.565 335.323 529.326 335.62 529.008 336.035 528.7 336.365 528.457 336.603 528.244 336.838 528.29 337.072 528.71 337.058 529.002 337.127 528.786 337.399 528.554 337.593 528.236 337.798 528.054 337.938 527.857 338.187 527.946 338.418 528.28 338.44 528.421 338.561 528.269 338.799 528.018 338.913 527.69 338.983 527.427 339.126 527.663 339.346 527.727 339.628 527.4 339.804 527.206 339.987 527.397 340.189 527.582 340.31 527.587 340.603 527.555 341.095 527.277 341.359 526.944 341.344 526.662 341.311 526.556 341.597 526.737 341.979 527.008 342.166 527.208 342.287 527.422 342.397 527.585 342.716 527.487 343.233 527.289 343.467 527.094 343.423 526.942 343.134 526.826 342.859 526.602 342.807 526.406 343.071 526.326 343.416 526.536 343.676 526.748 343.75 526.933 343.959 526.772 344.212 526.546 344.355 526.504 344.6 526.663 345.099 526.851 345.367 527.16 345.44 527.553 345.488 527.849 345.48 527.878 345.796 527.768 346.115 527.78 346.401 528.142 346.43 528.406 346.404 528.385 346.635 528.131 346.815 527.898 346.94 527.776 347.332 527.673 347.658 527.565 347.9 527.363 348.084 527.039 348.208 526.737 348.425 526.571 348.685 526.67 349.158 527.021 349.341 527.468 349.279 527.833 349.121 528.118 349.081 528.407 349.202 529.027 349.195 529.28 349.136 529.488 349.044 529.9 349.026 530.327 348.802 530.7 348.74 531.193 348.729 531.84 348.678 532.379 348.681 532.841 348.854 533.253 349.173 533.597 349.547 534.049 349.569 534.55 349.246 534.948 349.011 535.464 348.909 535.912 348.865 536.276 348.898 536.853 349.14 537.364 349.154 537.737 349.011 538.225 349.228 538.677 349.899 539.119 350.529 539.56 351.035 539.988 351.472 540.379 351.893 540.893 352.293 541.382 352.444 541.915 352.462 542.535 352.572 543.123 352.748 543.487 352.788 544.385 352.843 544.697 352.763 544.998 352.854 545.753 353.203 546.392 353.386 547.073 353.613 547.415 353.661 547.653 353.58 547.831 353.47 548.025 353.287 548.33 353.225 549.02 353.382 549.484 353.485 550.006 353.654 550.354 353.881 550.565 354.163 550.808 354.486 550.899 354.618 551.246 354.523 551.724 354.266 552.236 354.116 552.625 354.057 552.823 353.94 552.996 353.775 553.198 353.606 553.532 353.635 553.756 353.679 553.898 353.364 553.997 353.093 554.267 352.935 554.552 353.005 554.729 353.324 554.929 353.643 555.201 353.852 555.451 354.057 555.684 354.218 555.851 354.347 556.196 354.486 556.343 354.57 556.548 354.651 556.807 354.783 557.014 354.886 557.331 354.996 557.625 355.205 557.834 355.34 558 355.424 558.102 355.476 558.425 355.645 558.725 355.744 559.101 355.725 559.451 355.766 559.75 355.828 560.049 356 560.343 356.18 560.664 356.356 560.851 356.484 561.079 356.704 561.244 356.935 561.424 357.309 561.609 357.746 561.653 358.076 561.688 358.457 561.719 358.714 561.75 359.044 561.989 359.3 562.203 359.396 562.353 359.564 562.536 359.839 562.727 360.166 562.827 360.558 562.967 360.862 563.205 361.115 563.406 361.343 563.533 361.57 563.5 361.959 563.371 362.248 563.282 362.564 563.266 362.964 563.284 363.338 563.29 363.642 563.412 363.913 563.567 364.115 563.73 364.357 563.693 364.669 563.624 364.955 563.587 365.266 563.694 365.651 563.852 365.912 564.17 366.143 564.386 366.267 564.837 366.392 565.012 366.579 565.085 366.883 565.244 367.162 565.493 367.334 566.376 367.639 566.692 367.705 566.912 367.705 567.158 367.826 567.359 367.976 567.654 368.068 568.267 368.068 568.542 368.101 568.795 368.247 569.033 368.372 569.605 368.625 570.105 368.709 570.509 368.684 570.899 368.566 571.302 368.416 571.67 368.306 572.193 368.064 572.576 367.848 572.986 367.455 573.307 367.191 573.654 366.986 574.106 366.788 574.506 366.487 574.979 366.183 575.217 365.864 575.226 365.574 575.391 365.186 575.644 364.896 575.894 364.76 576.468 364.632 576.994 364.566 578.023 364.614 578.718 364.731 579.375 364.951 579.72 365.12 580.159 365.296 580.615 365.369 581.167 365.464 581.519 365.534 582.275 365.673 582.654 365.835 583.088 366.033 583.503 366.143 583.99 366.146 584.492 366.055 584.927 365.93 585.347 365.827 585.782 365.692 586.328 365.479 586.943 365.288 587.487 365.16 588.048 365.145 588.578 365.138 589.06 365.171 589.986 365.321 590.278 365.391 590.507 365.376 590.911 365.134 591.144 364.889 591.529 364.471 591.671 364.276 591.825 364.045 591.971 363.822 592.102 363.686 592.578 363.624 592.718 363.734 593.135 363.763 593.551 363.697 593.975 363.653 594.285 363.638 594.478 363.774 594.642 364.012 594.77 364.247 594.984 364.573 595.174 364.98 595.486 365.024 595.68 365.028 595.864 365.134 596.15 365.233 596.517 365.2 596.842 365.215 597.254 365.296 597.513 365.292 598.336 365.457 598.673 365.53 599.022 365.552 599.247 365.604 599.502 365.659 599.836 365.798 Z"/>
 <path d="M 426.471 439.786 426.203 439.789 426.043 439.808 425.662 439.936 425.41 440.035 425.096 440.16 424.857 440.251 424.728 440.361 424.578 440.431 424.288 440.563 424.001 440.692 423.68 440.837 423.448 440.942 423.321 441 421.543 440.989 421.385 440.952 421.152 440.879 420.801 440.772 420.588 440.71 420.428 440.658 420.218 440.574 420.163 440.551 419.549 440.295 419.29 440.189 418.94 440.042 418.75 439.995 418.489 439.929 418.295 439.881 417.843 439.767 417.58 439.617 417.019 439.309 416.783 439.331 416.447 439.298 416.225 439.261 415.516 438.671 415.318 438.495 415.138 438.345 414.416 437.734 413.501 437.945 413.363 438.017 413.245 438.081 412.984 438.18 412.772 438.26 412.347 438.422 412.138 438.462 411.97 438.4 411.105 437.875 410.239 437.468 410.176 437.439 409.75 437.527 409.453 437.593 409.088 437.67 408.772 437.74 408.45 437.809 408.22 437.74 408.132 437.501 408.012 437.168 407.869 436.772 407.795 436.569 407.636 436.131 407.628 436.109 407.163 434.832 406.652 434.782 406.509 434.769 406.216 434.74 406.053 434.535 405.934 434.326 405.89 434.11 405.813 433.842 405.75 433.556 405.691 433.259 405.628 432.841 405.553 432.515 405.499 432.159 405.444 431.789 405.348 431.473 405.219 431.114 405.206 430.81 405.191 430.531 405.111 428.811 405.082 428.745 404.712 427.924 404.652 427.792 404.535 427.528 404.471 427.319 404.556 427.091 404.642 426.87 404.664 426.813 404.749 426.596 404.848 426.343 404.963 426.046 405.11 425.658 405.099 425.555 405.088 425.441 404.972 424.29 404.935 424.236 404.153 423.058 403.696 422.436 403.53 422.211 402.645 421.005 401.138 420.044 400.318 418.126 399.692 417.814 399.267 417.603 399.222 417.58 399.032 417.334 398.827 417.18 398.647 416.993 398.531 416.832 398.351 416.689 398.261 416.461 398.182 416.26 398.093 416.029 397.959 415.68 399.955 413.81 400.127 413.645 400.248 413.535 400.415 413.268 400.489 413.121 400.553 412.978 401.064 411.911 401.426 411.163 401.507 410.994 401.592 410.818 401.681 410.628 401.756 410.47 401.835 410.309 402.097 409.766 402.293 409.557 403.447 408.31 403.666 408.219 403.808 408.112 404.086 407.914 404.056 407.559 404.362 407.086 404.608 406.818 404.819 406.587 404.962 406.546 405.657 406.348 406.89 406.07 407.71 405.934 408.67 405.934 412.779 407.441 413.074 407.419 413.294 407.405 413.591 407.434 413.923 407.46 415.379 407.577 415.65 407.537 415.901 407.551 416.209 407.595 416.439 407.544 416.693 407.57 416.953 407.61 417.252 407.625 417.707 407.441 417.869 407.357 418.063 407.262 418.429 407.078 418.57 407.009 418.819 406.884 419.103 406.741 419.154 406.715 419.288 406.649 419.545 406.521 419.774 406.407 420.003 406.279 420.451 405.975 420.8 405.743 421.132 405.523 421.411 405.34 421.557 405.168 421.775 405.014 421.951 404.841 422.275 405.34 422.409 405.553 422.556 405.78 422.7 406.008 422.843 406.231 423.184 406.759 423.184 407.716 422.704 409.88 422.636 410.184 422.59 410.686 422.565 410.972 422.542 411.214 422.522 411.442 422.405 411.746 422.306 412.094 422.219 412.395 422.011 413.125 422.013 413.414 421.973 413.653 421.976 414.177 421.943 414.562 421.919 415.05 421.895 415.449 421.852 416.109 421.86 416.861 421.929 417.4 421.982 417.565 422.279 418.145 422.375 418.328 422.569 418.706 422.664 418.885 422.798 419.146 422.909 419.351 422.772 420.172 422.909 420.73 422.91 421.412 422.929 421.547 422.923 421.705 422.91 422.097 423.32 422.372 423.456 422.783 423.436 423.311 423.422 423.703 423.411 423.993 423.4 424.308 423.382 424.767 423.321 426.343 423.373 426.897 423.593 429.222 423.66 429.504 423.746 429.875 424.004 431 424.827 431.686 425.51 432.507 425.786 432.914 425.921 433.6 425.972 433.78 426.062 434.091 426.195 434.564 426.47 435.246 426.42 435.748 426.331 436.618 426.265 437.28 426.195 437.982 426.469 439.074 426.471 439.786 Z"/>
 <path d="M 631.189 390.149 630.775 390.237 630.324 390.23 629.93 390.189 629.758 390.054 629.599 389.786 629.498 389.482 629.406 389.236 629.223 389.042 628.917 388.99 628.59 388.961 628.157 388.785 627.891 388.66 627.509 388.481 627.316 388.459 627.129 388.426 626.83 388.363 626.527 388.261 626.404 387.975 626.335 387.601 626.271 387.23 626.203 386.864 626.04 386.64 625.776 386.57 625.446 386.592 625.054 386.581 624.602 386.559 624.305 386.53 623.845 386.178 623.606 385.914 623.357 385.533 623.135 385.184 622.934 384.836 622.647 384.319 622.265 383.589 622.234 383.245 622.185 382.863 622.068 382.548 621.947 382.189 621.845 381.781 621.796 381.378 621.776 380.982 621.721 380.498 621.68 380.021 621.588 379.53 621.426 378.995 621.249 378.676 620.955 378.261 620.717 378.034 620.501 377.678 620.318 377.367 620.133 377.04 620.073 376.71 620.128 376.45 620.236 376.175 620.381 375.929 620.523 375.735 620.688 375.555 620.809 375.383 620.71 375.123 620.599 374.807 620.541 374.492 620.495 374.261 620.498 373.971 620.55 373.77 620.635 373.601 620.714 373.407 620.714 373.018 620.756 372.78 620.744 372.494 620.722 372.288 620.721 371.94 620.714 371.625 620.611 371.313 620.558 370.858 620.569 370.48 620.608 370.088 620.624 369.784 620.58 369.454 620.407 369.193 620.246 368.856 620.369 368.742 620.476 368.643 620.583 368.537 620.753 368.438 620.89 368.365 621.062 368.299 621.304 368.236 621.56 368.229 621.862 368.299 622.062 368.335 622.218 368.361 622.384 368.379 622.563 368.387 622.763 368.42 623.035 368.478 623.629 368.621 623.751 368.684 624.376 368.907 624.754 368.999 625.012 369.098 625.271 369.16 625.624 369.274 625.94 369.402 626.223 369.531 626.4 369.622 626.703 369.762 626.929 369.868 627.12 369.967 627.262 370.081 627.508 370.209 627.78 370.363 628.108 370.605 628.356 371.02 628.503 371.122 628.625 371.192 628.897 371.284 629.132 371.298 629.332 371.339 629.496 371.445 629.759 371.654 629.886 371.804 629.966 372.068 630.116 372.406 630.045 372.615 629.789 372.64 629.625 372.871 629.5 373.051 629.137 373.267 628.968 373.48 628.866 373.817 628.717 374.03 628.534 374.151 628.235 374.312 628.001 374.441 627.814 374.62 627.685 375.016 627.619 375.328 627.547 375.687 627.541 375.918 627.491 376.27 627.523 376.523 627.555 376.879 627.539 377.077 627.323 377.374 627.156 377.62 627.039 377.968 626.86 378.364 626.705 378.797 626.663 379.152 626.672 379.713 626.615 380.179 626.622 380.597 626.789 380.784 627.122 380.997 627.41 381.103 627.73 381.264 627.994 381.565 628.332 382.28 628.459 382.515 628.526 382.852 628.55 383.087 628.637 383.494 628.749 383.743 628.898 384.081 629.056 384.345 629.384 384.913 629.625 385.221 630.163 385.529 630.353 385.819 630.449 386.145 630.535 386.435 630.63 386.746 630.737 386.893 630.811 387.227 630.918 387.692 630.885 387.975 630.843 388.231 630.777 388.448 630.755 388.664 630.885 389.038 630.927 389.331 630.946 389.515 631.042 389.724 631.189 390.149 Z"/>
 </g></svg>
