<?xml version="1.0"?>
<svg width="233.23001098632812" height="118.718994140625" xmlns="http://www.w3.org/2000/svg" xmlns:svg="http://www.w3.org/2000/svg" version="1.2">
 <style type="text/css">&lt;style type=&quot;text/css&quot;&gt;
         g.comuni { fill:#eee; stroke-width:0.4; stroke-linecap:square; stroke-linejoin:bevel; stroke-miterlimit:3; stroke-opacity:1; stroke:#888; fill-opacity:1; }
         g.province { fill:none; stroke-width:0.7; stroke-linecap:square; stroke-linejoin:bevel; stroke-miterlimit:3; stroke-opacity:1; stroke:#444; fill-opacity:1; }
         g.regioni { fill:none; stroke-width:1; stroke-linecap:square; stroke-linejoin:bevel; stroke-miterlimit:3; stroke-opacity:1; stroke:#000; fill-opacity:1; }
       &lt;/style&gt;</style>
 <g class="layer">
  <title>Layer 1</title>
  <g id="Tricarico">
   <path d="m198.92,34.7l-0.23,0.33l-0.14,0.18l-0.1,0.16l-0.1,0.25l-0.12,0.31l-0.11,0.32l-0.16,0.44l-0.11,0.29l0.11,0.14l0.16,0.15l0.19,0.13l0.21,0.13l0.34,0.11l0.25,0.09l0.16,0.13l0.17,0.23l0.15,0.29l0.14,0.43l0.04,0.38l0,0.43l0.01,0.3l-0.01,0.35l-0.02,0.17l-0.14,0.32l-0.12,0.22l-0.19,0.29l-0.12,0.21l-0.17,0.22l-0.11,0.19l-0.14,0.27l0.13,0.11l0.21,0.26l0.2,0.21l0.26,0.16l0.19,0.14l0.2,0.13l0.13,0.13l0.2,0.08l0.22,0.04l0.14,0.17l0.2,0.16l0.19,0.16l0.2,0.2l0.18,0.21l0.19,0.2l0.21,0.19l0.32,0.26l0.3,0.22l0.32,0.1l0.41,0.1l0.38,0.08l0.33,0.15l0.34,0.28l0.19,0.25l0.16,0.27l0.14,0.29l0.2,0.17l0.2,0.15l0.47,0.24l0.32,0.02l0.2,-0.12l0.13,-0.43l-0.07,-0.28l-0.02,-0.28l0.01,-0.28l0,-0.23l0.01,-0.19l0.06,-0.22l0.14,-0.2l0.18,-0.15l0.26,-0.22l0.16,-0.19l0.21,-0.16l0.27,-0.04l0.18,0.08l0.11,0.16l0.1,0.22l0.04,0.2l0.07,0.19l0.17,0.27l0.16,0.17l0.24,0.13l0.2,-0.02l0.13,-0.3l0.04,-0.17l0.03,-0.26l0.06,-0.29l-0.03,-0.31l-0.02,-0.27l0,-0.18l-0.05,-0.23l-0.02,-0.17l-0.04,-0.16l0.04,-0.14l0.04,-0.32l0.1,-0.2l0.13,-0.18l0.14,-0.28l0.09,-0.32l0.07,-0.28l0.14,-0.34l0.17,-0.35l0.14,-0.23l0.27,-0.34l0.23,-0.23l0.21,-0.22l0.22,-0.3l0.23,-0.31l0.18,-0.39l0.15,-0.35l0.14,-0.32l0.15,-0.25l0.17,-0.25l0.11,-0.11l0.17,-0.07l0.19,0.1l0.11,0.16l0.06,0.15l0.19,0.33l0.05,0.18l0.23,0.17l0.14,0.13l0.26,0.09l0.23,0.15l0.16,0.18l0.07,0.17l0.05,0.23l0.05,0.25l0.04,0.26l0.06,0.27l0.1,0.2l0.14,0.17l0.19,0.14l0.17,0.08l0.18,0.11l0.14,0.15l0.13,0.2l0.14,0.16l0.08,0.14l0.07,0.14l0,0.43l0.04,0.28l-0.03,0.24l0.01,0.33l0.04,0.31l0.1,0.31l0.1,0.32l0.2,0.43l0.23,0.44l0.13,0.3l0.15,0.36l0.19,0.42l0.14,0.38l0.17,0.44l0.15,0.43l0.15,0.26l0.12,0.43l-0.05,0.41l-0.18,0.23l-0.22,0.12l-0.25,0.07l-0.28,0.06l-0.27,0.12l-0.22,0.22l-0.14,0.21l-0.18,0.31l-0.09,0.3l-0.05,0.22l-0.03,0.27l0.03,0.24l0.11,0.16l0.18,0.12l0.4,0l0.22,0.06l0.27,0.11l0.26,0.08l0.36,0.14l0.25,0.16l0.28,0.19l0.28,0.17l0.3,0.11l0.25,0.15l0.24,0.24l0.22,0.24l0.17,0.17l0.09,0.16l-0.06,0.14l-0.21,0.1l-0.38,0.07l-0.4,0.08l-0.39,0.14l-0.35,0.18l-0.36,0.24l-0.34,0.37l-0.34,0.26l-0.29,0.27l-0.03,0.02l-0.38,0.19l-0.4,0.17l-0.28,0.13l-0.35,0.2l-0.23,0.12l-0.15,-0.14l-0.06,-0.1l-0.07,-0.12l-0.17,-0.11l-0.27,0.06l-0.29,0.11l-0.29,0.16l-0.32,0.34l-0.3,0.3l-0.32,0.36l-0.26,0.15l-0.18,-0.13l-0.14,-0.38l0.02,-0.45l0.02,-0.25l0.06,-0.27l0.09,-0.29l0.11,-0.33l0.04,-0.26l-0.1,-0.3l-0.2,0.02l-0.23,0.14l-0.2,0.11l-0.31,0.19l-0.93,0.37l-0.36,0.06l-0.32,-0.12l-0.14,-0.24l0.04,-0.22l0.25,-0.24l0.1,-0.22l-0.24,-0.06l-0.46,0.08l-0.28,-0.13l-0.25,-0.15l-0.42,-0.19l-0.43,0.07l-0.32,0.31l-0.2,0.38l-0.24,0.5l-0.23,0.48l-0.2,0.36l-0.26,0.27l-0.32,0.02l-0.37,-0.05l-0.26,-0.24l-0.24,-0.38l-0.16,-0.45l-0.07,-0.36l-0.22,-0.31l-0.23,-0.12l-0.25,0.05l-0.04,0.33l0.12,0.33l0.17,0.28l0.1,0.23l-0.02,0.33l-0.18,0.21l-0.28,-0.02l-0.31,-0.19l-0.3,-0.14l-0.49,0.02l-0.27,0.17l-0.16,0.2l-0.26,0.16l-0.34,0.06l-0.63,-0.38l-0.18,-0.38l-0.31,-0.04l-0.02,0.26l-0.07,0.29l-0.21,-0.06l-0.14,-0.18l-0.01,-0.26l-0.06,-0.2l-0.07,-0.21l-0.13,-0.1l-0.22,0.03l-0.13,0.12l-0.1,0.21l-0.08,0.2l-0.15,0.11l-0.22,0.03l-0.23,-0.03l-0.15,-0.06l-0.13,0.13l-0.01,0.25l0.04,0.22l0,0.22l0,0.18l-0.04,0.2l-0.07,0.14l-0.12,0.14l-0.15,0.14l-0.29,0.19l-0.22,0.01l-0.2,-0.03l-0.14,-0.11l-0.12,-0.21l-0.16,-0.24l-0.14,-0.3l-0.26,-0.4l-0.42,-0.45l-0.39,-0.12l-0.36,-0.08l-0.29,0.08l-0.16,0.3l0.04,0.38l0.09,0.21l0.06,0.27l0.01,0.27l-0.27,0.27l-0.21,0l-0.21,0.02l-0.23,-0.05l-0.03,-0.3l0.03,-0.2l-0.1,-0.2l-0.24,-0.1l-0.27,0.01l-0.31,-0.07l-0.14,-0.1l-0.27,-0.13l-0.16,0.14l-0.05,0.19l-0.2,0.12l-0.25,-0.04l-0.25,0.04l-0.12,0.14l-0.03,0.42l0.11,0.12l0.14,0.14l0.29,0.04l0.17,0.24l-0.15,0.17l-0.19,0.04l-0.17,-0.03l-0.14,-0.09l-0.2,-0.13l-0.21,0.08l-0.35,0.2l-0.17,0.14l-0.22,0.1l-0.02,0.01l-0.19,0.14l-0.16,0.12l-0.24,0.14l-0.14,-0.01l-0.3,-0.09l-0.26,-0.03l-0.17,-0.01l-0.29,0.21l-0.21,0.22l-0.14,0.27l-0.11,0.25l-0.14,0.32l-0.13,0.4l-0.18,0.57l-0.14,0.33l-0.14,0.3l-0.14,0.26l-0.17,0.28l-0.29,0.33l-0.26,0.12l-0.28,0.13l-0.31,0.03l-0.29,0.09l-0.36,0.29l-0.52,0.14l-0.28,0.11l-0.26,0.31l-0.08,0.4l-0.07,0.34l-0.18,0.4l-0.14,0.25l-0.15,0.17l-0.21,0.17l-0.2,0.06l-0.2,0.13l-0.38,0.26l-0.31,0.13l-0.46,0.13l-0.39,0.06l-0.37,0.01l-0.27,0.05l-0.33,0.04l-0.18,-0.15l-0.14,-0.19l-0.14,-0.12l-0.25,-0.14l-0.19,0.03l-0.14,0.5l-0.04,0.38l-0.03,0.43l0.13,0.26l0.35,0.1l0.28,0.12l0.42,0.24l0.37,0.24l0.33,0.24l0.25,0.18l0.63,0.5l0.19,0.17l0.19,0.21l0.18,0.22l0.19,0.29l0.17,0.35l0.08,0.22l0.01,0.24l0.03,0.33l0.03,0.29l-0.01,0.27l-0.04,0.39l-0.01,0.39l0.01,0.38l0.01,0.38l0.03,0.34l-0.02,0.44l-0.05,0.33l0.09,0.4l0.11,0.33l0.03,0.33l-0.04,0.31l-0.07,0.35l-0.04,0.5l0.08,0.37l0.15,0.38l0.14,0.4l0.08,0.3l0.04,0.29l-0.1,0.33l-0.25,0.32l-0.02,0.31l0.02,0.14l0.17,0.16l0.24,0.1l0.26,0.14l0.2,0.23l0.07,0.25l0.1,0.36l0.37,0.65l-0.23,0.15l-0.07,0.23l-0.23,0.37l-0.17,0.4l-0.14,0.15l-0.18,0.15l-0.28,0.15l-0.3,0.13l-0.32,0.14l-0.27,0.14l-0.24,0.18l-0.05,0.04l-0.1,0.07l-0.28,0.28l-0.18,0.3l-0.2,0.35l-0.14,0.43l-0.08,0.37l-0.13,0.38l-0.08,0.23l-0.08,0.24l-0.16,0.12l-0.16,-0.02l-0.15,-0.23l-0.26,0.01l-0.06,0.19l-0.08,0.19l-0.11,0.22l-0.16,0.25l-0.16,0.25l-0.21,0.27l-0.24,0.25l-0.18,0.25l-0.23,0.25l-0.33,0.38l-0.15,0.32l-0.1,0.18l-0.05,0.11l-0.05,0.1l-0.06,0.08l-0.18,0.19l-0.46,0.38l-0.34,0.25l-0.33,0.15l-0.22,0.22l-0.17,0.24l-0.16,0.27l-0.18,0.27l-0.25,0.32l-0.25,0.3l-0.24,0.24l-0.2,0.19l-0.19,0.17l-0.13,0.23l-0.1,0.32l-0.1,0.21l-0.14,0.22l-0.13,0.11l-0.18,0.06l-0.16,0.01l-0.19,-0.02l-0.14,-0.05l-0.3,-0.02l-0.34,0.08l-0.34,-0.16l-0.2,-0.15l-0.25,-0.16l-0.36,-0.19l-0.26,-0.27l-0.21,-0.21l-0.28,-0.1l-0.2,0.02l-0.2,0.11l-0.1,0.17l-0.09,0.24l-0.03,0.17l-0.07,0.24l-0.13,0.3l-0.14,0.23l-0.14,0.15l-0.2,0.12l-0.21,0.08l-0.26,0.03l-0.3,0.02l-0.2,-0.06l-0.25,-0.12l-0.27,-0.14l-0.21,-0.07l-0.36,-0.13l-0.39,-0.15l-0.53,-0.18l-0.46,-0.08l-0.37,-0.07l-0.46,-0.06l-0.43,-0.06l-0.36,-0.06l-0.32,-0.13l-0.34,-0.19l-0.34,-0.21l-0.4,-0.21l-0.25,-0.12l-0.32,-0.14l-0.35,-0.16l-0.4,-0.09l-0.42,-0.19l-0.1,-0.14l-0.14,-0.09l-0.18,-0.07l-0.25,-0.03l-0.28,0.05l-0.24,0.03l-0.27,0.03l-0.2,0.03l-0.2,0.03l-0.33,0.02l-0.39,-0.03l-0.26,0.02l-0.21,0.09l-0.32,0.14l-0.27,0.17l-0.33,0.04l-0.24,-0.15l-0.2,-0.11l-0.2,-0.18l-0.1,-0.15l-0.07,-0.24l-0.11,-0.21l-0.19,-0.14l-0.2,-0.02l-0.08,0.17l0.02,0.25l0,0.27l-0.04,0.29l0.01,0.18l0.05,0.18l0.07,0.17l0.08,0.13l0.12,0.16l0.01,0.2l-0.05,0.24l-0.13,0.24l-0.15,0.12l-0.26,0l-0.3,-0.05l-0.42,-0.02l-0.32,-0.07l-0.35,-0.11l-0.28,-0.05l-0.15,-0.14l-0.18,-0.16l-0.22,-0.04l-0.3,0.22l-0.07,0.24l-0.07,0.39l-0.02,0.26l0,0.14l-0.21,0.06l-0.16,-0.08l-0.28,-0.09l-0.22,-0.02l-0.2,0.07l-0.28,0.1l-0.19,0l-0.33,-0.04l-0.19,0.01l-0.26,0.25l-0.04,0.33l-0.01,0.43l0.01,0.25l0.08,0.26l0.12,0.28l0.12,0.19l0.12,0.16l0.14,0.21l0.09,0.31l0.08,0.29l0.12,0.37l0.03,0.32l0.11,0.98l0.1,0.27l0.16,0.34l0.04,0.28l0.04,0.33l-0.01,0.32l-0.14,0.33l-0.11,0.14l-0.11,0.25l-0.03,0.21l-0.04,0.22l0.04,0.25l0.04,0.34l0.05,0.33l-0.01,0.33l-0.12,0.29l-0.06,0.1l-0.13,0.19l-0.01,0.02l-0.09,0.14l-0.17,0.3l-0.19,0.28l-0.22,0.29l-0.14,0.2l-0.45,0.19l-0.24,0.03l-0.24,0.01l-0.42,-0.01l-0.34,0l-0.53,0.1l-0.35,0.04l-0.36,0.02l-0.32,0.09l-0.27,0.2l-0.2,0.26l-0.26,0.25l-0.03,0.04l-0.22,0.06l-0.37,0.16l-0.41,0.1l-0.36,0.03l-0.26,0.02l-0.31,0.08l-0.24,0.03l-0.08,0.01l-0.27,-0.02l-0.3,-0.04l-0.37,-0.04l-0.14,-0.1l-0.07,-0.05l-0.1,-0.14l-0.07,-0.19l-0.07,-0.24l-0.11,-0.16l-0.08,-0.14l-0.85,0l-0.33,0.02l-0.48,0.21l-0.44,0.2l-0.35,0.17l-0.55,0.31l-1.69,0.85l-1.17,0.53l-0.27,0.12l-0.47,0.19l-0.1,0.05l-0.3,0.13l-0.22,0.1l-0.08,0.03l-1.18,0.58l-0.69,0.39l-0.71,0.4l-1.04,0.64l-0.98,0.46l-0.39,0.34l-0.45,0.5l-0.29,0.34l-0.29,0.31l-0.18,0.27l-0.18,0.26l-0.26,0.07l-0.3,-0.08l-0.2,-0.09l-0.26,-0.06l-0.52,0.2l-0.4,0.07l-0.36,-0.05l-0.21,-0.17l-0.26,-0.26l-0.23,-0.16l-0.3,-0.08l-0.54,-0.02l-0.35,0.08l-0.3,0.19l-0.24,0.2l-0.08,0.07l-0.21,0.24l-0.24,0.31l-0.16,0.23l-0.17,0.37l-0.14,0.34l-0.17,0.42l-0.06,0.45l-0.06,0.49l-0.14,0.47l-0.16,0.34l-0.13,0.14l-0.25,0.1l-0.36,0.13l-0.44,0l-0.06,0.02l-0.2,0.07l-0.16,0.02l-0.25,0.07l-0.26,0.04l-0.52,0.09l-0.41,0.17l-0.32,0.13l-1.12,-0.15l-0.39,-0.14l-0.29,-0.17l-0.38,-0.19l-0.33,-0.05l-0.3,-0.01l-0.49,-0.03l-0.07,-0.01l-0.36,-0.07l-0.25,0.01l-0.21,0.24l-0.26,0.21l-0.22,0.4l-0.12,0.18l-0.04,0.34l-0.03,0.3l-0.15,0l-0.2,0.14l-0.2,0.23l-0.16,0.16l-0.31,0.25l-0.29,0.11l-0.2,-0.14l-0.04,-0.27l0.02,-0.24l-0.02,-0.24l-0.14,0l-0.15,0.13l-0.21,0.18l-0.25,0.12l-0.28,0.1l-0.35,0.11l-0.48,0.14l-0.23,-0.08l-0.2,-0.15l-0.16,-0.2l-0.24,-0.3l-0.16,-0.2l-0.13,-0.15l-0.14,-0.07l-0.24,-0.1l-0.13,-0.04l-0.23,0.01l-0.15,0.01l-0.21,-0.02l-0.2,-0.21l-0.15,-0.3l-0.07,-0.21l-0.03,-0.21l-0.31,-0.27l-0.25,-0.06l-0.22,-0.11l-0.07,-0.23l-0.03,-0.23l-0.14,-0.15l-0.14,-0.05l-0.27,-0.11l-0.14,-0.14l-0.14,-0.16l-0.14,-0.47l0.02,-0.19l0.05,-0.3l-0.14,-0.14l-0.14,-0.11l-0.19,-0.08l-0.33,-0.02l-0.19,-0.11l-0.26,-0.26l-0.12,-0.19l-0.11,-0.31l-0.16,-0.14l-0.38,-0.19l-0.27,-0.14l-0.23,-0.08l-0.18,0.06l-0.18,0.23l-0.17,0.12l-0.14,-0.08l-0.11,-0.22l-0.03,-0.19l-0.02,-0.21l0.02,-0.22l-0.01,-0.22l-0.2,-0.36l-0.18,-0.22l-0.25,-0.3l-0.22,-0.23l-0.22,-0.2l-0.29,-0.17l-0.38,-0.12l-0.26,-0.11l-0.25,0.04l-0.19,0.24l-0.18,-0.1l-0.12,-0.19l-0.15,-0.27l-0.2,-0.25l-0.23,-0.26l-0.42,-0.44l-0.6,-0.55l-0.22,-0.1l-0.21,0.14l-0.19,0.1l-0.31,-0.04l-0.35,-0.06l-0.34,0.08l-0.2,0.11l-0.28,0.21l-0.21,0.19l-0.18,0.08l-0.26,0.08l-0.14,0.15l-0.15,0.1l-0.12,-0.13l-0.12,-0.2l-0.12,-0.11l-0.17,-0.02l-0.14,-0.03l-0.2,-0.09l-0.16,-0.07l-0.16,-0.11l-0.21,-0.14l-0.21,-0.3l-0.02,-0.29l0.04,-0.18l-0.06,-0.28l-0.13,-0.08l-0.2,0.1l0.02,0.23l-0.04,0.26l-0.17,-0.12l-0.13,-0.19l-0.16,0.21l-0.1,0.12l-0.2,0.03l-0.17,0l-0.17,-0.19l-0.09,-0.3l-0.07,-0.16l-0.21,-0.12l-0.27,0.01l-0.18,0.08l-0.26,0.01l-0.28,-0.17l-0.17,-0.27l-0.23,-0.11l-0.16,-0.08l-0.31,0.04l-0.25,0.04l-0.24,0.06l-0.16,0.04l-0.19,-0.13l-0.18,-0.11l-0.13,-0.14l-0.06,-0.05l-0.17,-0.16l0,-0.19l0.15,-0.07l0.13,-0.07l0.03,-0.2l-0.14,-0.14l-0.23,-0.07l-0.26,-0.07l-0.17,-0.06l-0.18,-0.13l-0.1,-0.16l-0.06,-0.37l-0.06,-0.21l-0.16,0l-0.15,-0.11l-0.04,-0.18l0.02,-0.28l-0.15,-0.11l-0.1,-0.11l0.04,-0.14l0.18,-0.27l-0.11,-0.3l-0.07,-0.21l-0.11,-0.28l-0.06,-0.23l-0.07,-0.22l-0.62,-0.1l-0.18,-0.23l-0.15,-0.2l-0.2,-0.24l-0.17,-0.13l-0.1,-0.57l0.31,-0.13l0.05,-0.28l-0.08,-0.33l-0.19,-0.32l-0.2,-0.22l-0.26,-0.21l-0.17,-0.17l-0.25,-0.2l-0.14,-0.3l0,-0.31l0.03,-0.32l0.01,-0.34l0.03,-0.36l-0.11,-0.25l-0.22,-0.16l-0.35,-0.26l-0.28,-0.15l-0.25,-0.14l-0.21,-0.15l-0.15,-0.27l0.01,-0.25l0.02,-0.71l-0.23,-1.05l-0.14,-0.31l-0.12,-0.18l-0.34,-0.43l-0.36,-0.19l-0.2,-0.33l-0.06,-0.31l-0.06,-0.43l-0.29,-0.21l-0.34,0.03l-0.27,-0.09l-0.18,-0.12l-0.3,-0.24l-0.16,-0.11l-1.3,-0.63l-0.31,-0.13l-0.34,-0.02l-0.43,-0.07l-0.37,-0.04l-0.33,0.04l-0.25,0.06l-0.26,0.07l-0.3,0.06l-0.39,0.05l-0.39,0.02l-0.57,-0.42l-0.32,0.06l-0.26,0.01l-0.4,-0.03l-0.36,-0.07l-0.25,-0.1l-0.28,-0.19l-0.25,-0.23l-0.08,-0.19l-0.07,-0.28l-0.08,-0.19l-0.13,-0.12l-0.2,-0.11l-0.17,-0.1l-0.66,-0.31l-0.29,-0.13l-0.29,-0.22l-0.14,-0.3l-0.19,-0.35l-0.11,-0.29l-0.07,-0.32l-0.1,-0.46l-0.14,-0.37l-0.12,-0.31l-0.1,-0.36l-0.14,-0.36l-0.15,-0.4l-0.13,-0.39l-0.24,-0.38l-0.24,-0.39l-0.17,-0.29l-0.25,-0.41l-0.17,-0.27l-0.18,-0.32l-0.17,-0.3l-0.14,-0.2l-0.14,-0.17l-0.23,-0.12l-0.05,0l-0.1,-0.01l-0.03,0l-0.1,0l-0.02,-0.55l0.08,-0.24l0.05,-0.18l0.14,-0.25l0.1,-0.18l0.11,-0.24l0.08,-0.37l0.04,-0.31l0.06,-0.34l-0.03,-0.35l-0.01,-0.35l-0.17,-0.43l-0.06,-0.22l-0.07,-0.14l-0.14,-0.27l-0.13,-0.17l-0.05,-0.14l0.19,-0.23l0.23,-0.24l0.28,-0.25l0.26,-0.15l0.21,-0.05l0.18,-0.04l0.17,0l0.14,-0.03l0.14,-0.03l0.42,-0.11l0.35,-0.12l0.38,-0.1l0.28,-0.19l0.22,-0.14l0.18,-0.32l0.08,-0.21l0.03,-0.26l0.03,-0.27l0.02,-0.89l-0.04,-0.42l-0.08,-0.29l-0.14,-0.33l-0.03,-0.38l0.03,-0.3l0.06,-0.2l0.11,-0.28l-0.04,-0.24l-0.14,-0.27l-0.13,-0.36l-0.03,-0.29l0.05,-0.38l0.05,-0.32l-0.07,-0.16l-0.12,-0.13l-0.08,-0.31l0.15,-0.2l0.09,-0.24l0.02,-0.54l0.01,-0.25l-0.04,-0.36l-0.11,-0.35l-0.12,-0.27l-0.03,-0.48l0.11,-0.51l0.14,-0.59l0.14,-0.37l0.23,-0.47l0.23,-0.37l0.34,-0.48l0.62,-0.68l0.29,-0.41l0.48,-0.44l0.23,-0.28l0.42,-0.32l0.69,-0.32l0.31,-0.23l0.3,-0.09l0.22,-0.06l0.14,0.03l0.68,0.12l0.53,0.14l0.64,0.1l0.49,0.1l0.4,0.13l0.26,0.23l0.17,0l0.17,0.03l0.15,0.07l0.2,0.08l0.11,0.12l0.26,-0.05l0.3,-0.14l0.17,-0.04l0.32,-0.1l0.26,-0.14l0.23,-0.11l0.03,-0.02l0.16,-0.07l0.19,-0.1l0.18,-0.14l0.24,-0.17l0.17,-0.12l0.19,-0.15l0.15,-0.14l0.15,-0.16l0.12,-0.14l0.12,-0.18l0.07,-0.13l0.06,-0.1l0.17,-0.24l0.14,-0.2l0.07,-0.14l0.3,-0.12l0.36,-0.05l0.3,0.02l0.26,0.03l0.28,0.02l0.19,-0.09l0.14,-0.14l0.1,-0.21l0.05,-0.2l0.04,-0.2l0.03,-0.2l0.02,-0.15l0.02,-0.21l0,-0.18l0.01,-0.19l-0.01,-0.16l-0.03,-0.2l-0.03,-0.14l-0.03,-0.19l-0.04,-0.14l-0.07,-0.27l0.02,-0.63l-0.09,-0.39l-0.03,-0.16l0.42,0.09l0.42,-0.05l0.49,-0.14l0.06,-0.01l0.14,-0.04l0.2,-0.05l0.36,-0.1l0.33,-0.03l0.29,-0.06l0.4,0.05l0.19,-0.08l0.14,-0.12l0.2,-0.02l0.19,0l0.2,0.06l0.14,-0.07l0.14,-0.09l0.17,-0.14l0.43,-0.04l0.16,-0.13l0.14,-0.16l0.13,-0.24l0.15,-0.3l0.19,-0.27l0.3,-0.24l0.28,-0.08l0.2,-0.22l0.11,-0.15l0.18,-0.17l0.3,-0.11l0.42,-0.09l0.24,-0.06l0.4,-0.08l0.8,-0.09l0.31,-0.14l0.3,-0.23l0.24,-0.19l0.33,-0.38l0.18,-0.17l0.25,-0.21l0.22,-0.15l0.32,-0.05l0.27,0.03l0.28,-0.06l0.18,-0.06l0.23,-0.15l0.1,-0.12l0.11,-0.1l0.18,-0.16l0.11,-0.14l0.13,-0.14l0.28,-0.27l0.5,-0.44l0.26,-0.33l0.3,-0.35l0.09,-0.14l0.31,-0.36l0.27,-0.39l0.53,-0.22l0.29,-0.23l0.19,-0.29l-0.03,-0.21l0,-0.18l0.08,-0.14l0.23,-0.16l0.39,-0.28l0.26,-0.15l0.21,-0.23l0.13,-0.23l0.11,-0.31l0.2,-0.34l0.3,-0.21l0.49,-0.41l0.81,-0.65l0.14,-0.17l0.14,-0.19l0.13,-0.26l0.09,-0.22l0.09,-0.18l0.11,-0.2l0.16,-0.24l0.13,-0.17l0.14,-0.19l0.16,-0.14l0.18,-0.16l0.19,-0.19l0.14,-0.16l0.06,-0.1l0.11,-0.21l0.1,-0.19l0.14,-0.17l0.2,-0.12l0.14,-0.08l0.14,-0.14l0.16,-0.16l0.14,-0.15l0.14,-0.25l0.05,-0.19l0.03,-0.23l0.02,-0.18l0.06,-0.29l0.04,-0.2l0.1,-0.19l0.13,-0.18l0.17,-0.19l0.18,-0.28l0.1,-0.18l0.23,-0.36l0.37,-0.56l0.39,-0.43l0.17,-0.26l0.18,-0.28l0.21,-0.36l0.21,-0.32l0.21,-0.32l0.17,-0.24l0.15,-0.16l0.19,-0.14l0.26,-0.18l0.15,-0.11l0.21,-0.09l0.17,-0.02l0.15,-0.02l0.17,-0.11l0.14,-0.22l0.1,-0.22l0.06,-0.49l0.13,-0.09l0.2,0.03l0.14,0.09l0.12,0.06l0.14,0.01l0.24,-0.11l0.11,-0.22l0.06,-0.23l0.08,-0.12l0.1,-0.11l0.21,-0.15l0.14,-0.05l0.14,-0.06l0.14,-0.06l0.15,-0.07l0.27,-0.09l0.16,-0.02l0.18,-0.06l0.14,-0.08l0.22,-0.13l0.29,-0.14l0.18,-0.08l0.17,-0.09l0.29,-0.17l0.2,-0.16l0.1,-0.09l0.17,-0.14l0.17,-0.11l0.18,-0.08l0.19,-0.05l0.23,0.02l0.12,0.08l0.16,0.12l0.13,0.14l0.14,-0.04l0.24,-0.13l0.22,0.01l0.2,0.05l0.49,0.07l0.39,0.13l0.32,0.02l0.32,-0.02l0.38,0l0.25,0.04l0.22,0.13l0.24,0.14l0.14,0.05l0.19,0.11l0.14,0.07l0.17,-0.02l0.23,-0.13l0.2,0.1l0.23,-0.05l0.01,-0.14l0.03,-0.23l0.06,-0.31l0.07,-0.32l0.06,-0.33l0.09,-0.26l0.12,-0.37l0.09,-0.26l0.14,-0.28l0.11,-0.33l0.14,-0.76l0.02,-0.11l0.19,-0.88l0.13,-0.64l0.05,-0.36l0.01,-0.19l0.04,-0.26l-0.04,-0.27l-0.02,-0.3l-0.03,-0.29l-0.16,-0.82l-0.15,-0.78l-0.07,-0.35l0,-0.05l-0.06,-0.29l-0.1,-0.26l-0.1,-0.4l-0.18,-0.42l-0.06,-0.17l-0.19,-0.59l-0.3,-1.14l-0.07,-0.34l-0.03,-0.17l-0.04,-0.66l-0.06,-0.74l0.02,-0.21l0.02,-0.31l0,-0.16l0.01,-0.15l-0.01,-0.14l-0.02,-0.22l-0.02,-0.14l0.04,-0.2l0.08,-0.23l0.09,-0.16l0.07,-0.16l0.07,-0.14l0.04,-0.07l0.05,-0.11l0.12,-0.21l0.12,-0.25l0.09,-0.15l0.05,-0.08l0.09,-0.13l0.08,-0.12l0.13,-0.14l0.12,-0.14l0.12,-0.14l0.12,-0.09l0.25,-0.16l0.13,-0.08l0.14,-0.14l0.08,-0.13l-0.01,-0.35l0.25,-0.02l0.15,-0.14l0.14,-0.14l0.08,-0.17l0.1,-0.3l0.09,-0.18l0.09,-0.28l0.04,-0.4l-0.16,-0.48l-0.17,-0.45l-0.16,-0.37l-0.19,-0.34l-0.1,-0.34l0.07,-0.31l0.44,-0.14l0.32,-0.03l0.42,0.08l0.42,0.11l0.25,0.14l0.14,0.09l0.15,-0.06l0.19,-0.42l0.15,-0.45l0.15,-0.39l0.18,-0.24l0.42,-0.16l0.37,0l0.49,0.13l0.41,0.15l0.33,0.17l0.31,-0.08l0.4,-0.15l0.46,-0.24l0.33,-0.14l0.42,0.17l0.24,0.35l0.17,0.43l-0.09,0.41l-0.24,0.3l-0.24,0.16l-0.22,0.25l-0.23,0.29l-0.31,0.41l-0.3,0.32l-0.23,0.22l-0.21,0.23l0.05,0.22l0.41,-0.01l0.28,0.07l-0.2,0.26l-0.23,0.18l-0.3,0.2l-0.18,0.14l-0.18,0.24l0.09,0.22l0.32,0.02l0.14,0.12l-0.14,0.23l-0.24,0.11l-0.32,0.07l-0.25,0.14l0.22,0.21l0.07,0.27l-0.32,0.16l-0.18,0.18l0.18,0.19l0.17,0.12l0.01,0.28l-0.04,0.48l-0.26,0.25l-0.33,-0.02l-0.27,-0.03l-0.1,0.28l0.17,0.37l0.26,0.18l0.19,0.12l0.2,0.11l0.16,0.31l-0.1,0.49l-0.19,0.23l-0.19,-0.05l-0.14,-0.28l-0.11,-0.26l-0.22,-0.05l-0.18,0.25l-0.08,0.34l0.2,0.25l0.2,0.07l0.17,0.2l-0.15,0.24l-0.21,0.14l-0.05,0.23l0.15,0.48l0.18,0.26l0.3,0.07l0.38,0.05l0.29,-0.01l0.03,0.31l-0.11,0.31l0.01,0.27l0.35,0.03l0.26,-0.03l-0.03,0.22l-0.24,0.17l-0.22,0.13l-0.12,0.38l-0.11,0.32l-0.1,0.23l-0.2,0.17l-0.31,0.13l-0.29,0.21l-0.16,0.25l0.1,0.45l0.34,0.17l0.43,-0.06l0.35,-0.15l0.28,-0.04l0.28,0.12l0.6,-0.01l0.24,-0.05l0.2,-0.1l0.4,-0.01l0.42,-0.22l0.36,-0.06l0.47,-0.01l0.63,-0.05l0.52,0l0.44,0.16l0.4,0.31l0.34,0.37l0.43,0.02l0.48,-0.31l0.39,-0.23l0.49,-0.1l0.43,-0.04l0.36,0.03l0.55,0.23l0.49,0.01l0.37,-0.14l0.47,0.21l0.43,0.65l0.42,0.61l0.42,0.49l0.42,0.42l0.38,0.41l0.49,0.39l0.47,0.14l0.51,0.02l0.6,0.11l0.57,0.17l0.36,0.04l0.86,0.05l0.31,-0.08l0.29,0.09l0.72,0.34l0.62,0.18l0.66,0.21l0.33,0.05l0.23,-0.08l0.17,-0.11l0.18,-0.17l0.3,-0.06l0.67,0.14l0.44,0.11l0.51,0.15l0.33,0.22l0.21,0.27l0.23,0.32l0.09,0.13l0.34,-0.1l0.45,-0.24l0.5,-0.14l0.38,-0.06l0.18,-0.12l0.17,-0.16l0.19,-0.15l0.32,0.02l0.22,0.05l0.14,-0.31l0.1,-0.26l0.26,-0.14l0.27,0.06l0.17,0.31l0.19,0.31l0.26,0.2l0.24,0.2l0.22,0.15l0.16,0.13l0.34,0.14l0.14,0.08l0.2,0.08l0.25,0.13l0.19,0.11l0.31,0.11l0.29,0.19l0.19,0.14l0.16,0.08l0.1,0.06l0.31,0.15l0.3,0.1l0.36,-0.01l0.34,0.04l0.29,0.06l0.29,0.16l0.28,0.17l0.31,0.17l0.18,0.12l0.22,0.21l0.15,0.23l0.17,0.36l0.18,0.43l0.04,0.32l0.04,0.37l0.03,0.24l0.03,0.32l0.23,0.25l0.2,0.1l0.14,0.15l0.18,0.27l0.18,0.32l0.1,0.38l0.14,0.29l0.23,0.25l0.19,0.21l0.12,0.22l-0.03,0.38l-0.13,0.28l-0.09,0.3l-0.01,0.39l0.01,0.37l0.01,0.29l0.12,0.26l0.15,0.2l0.15,0.23l-0.04,0.3l-0.07,0.27l-0.03,0.31l0.1,0.37l0.15,0.25l0.31,0.22l0.21,0.13l0.43,0.12l0.16,0.18l0.08,0.29l0.14,0.27l0.24,0.16l0.86,0.3l0.3,0.06l0.21,0l0.24,0.13l0.19,0.14l0.28,0.09l0.6,0l0.26,0.03l0.24,0.14l0.23,0.12l0.56,0.25l0.48,0.08l0.39,-0.03l0.38,-0.11l0.39,-0.14l0.36,-0.11l0.5,-0.24l0.38,-0.2l0.4,-0.39l0.31,-0.25l0.33,-0.19l0.44,-0.19l0.39,-0.29l0.45,-0.3l0.23,-0.31l0.01,-0.28l0.15,-0.37l0.24,-0.28l0.24,-0.14l0.56,-0.13l0.5,-0.06l0.99,0.04l0.68,0.12l0.64,0.21l0.33,0.16l0.42,0.17l0.44,0.07l0.53,0.09l0.34,0.07l0.72,0.14l0.37,0.15l0.42,0.19l0.4,0.11l0.47,0.01l0.48,-0.09l0.42,-0.13l0.41,-0.1l0.42,-0.14l0.53,-0.2l0.59,-0.18l0.53,-0.13l0.54,-0.02l0.51,0l0.46,0.03l0.9,0.14l0.28,0.07l0.22,-0.01l0.39,-0.24l0.22,-0.23l0.38,-0.41l0.14,-0.18l0.15,-0.22l0.14,-0.22l0.13,-0.13l0.46,-0.07l0.14,0.11l0.4,0.03l0.41,-0.06l0.42,-0.05l0.29,-0.01l0.19,0.13l0.15,0.23l0.13,0.23l0.2,0.31l0.18,0.4l0.31,0.04l0.18,0.01l0.17,0.1l0.28,0.1l0.36,-0.03l0.31,0.01l0.4,0.09l0.25,-0.01l0.8,0.16l0.32,0.07l0.34,0.02l0.22,0.05l0.24,0.06l0.33,0.14z" fill="#ff0000" id="svg_1"/>
   <path d="m31.49,106.2l-0.26,0l-0.15,0.02l-0.37,0.13l-0.24,0.1l-0.3,0.12l-0.23,0.09l-0.13,0.11l-0.14,0.07l-0.28,0.13l-0.28,0.13l-0.31,0.14l-0.22,0.1l-0.13,0.06l-1.72,-0.01l-0.15,-0.04l-0.22,-0.07l-0.34,-0.11l-0.2,-0.06l-0.15,-0.05l-0.2,-0.09l-0.06,-0.02l-0.59,-0.24l-0.25,-0.11l-0.34,-0.14l-0.18,-0.04l-0.25,-0.07l-0.18,-0.05l-0.44,-0.11l-0.25,-0.14l-0.54,-0.3l-0.23,0.02l-0.32,-0.03l-0.21,-0.04l-0.69,-0.57l-0.19,-0.16l-0.17,-0.14l-0.7,-0.6l-0.89,0.2l-0.14,0.08l-0.11,0.06l-0.26,0.1l-0.2,0.08l-0.41,0.15l-0.2,0.04l-0.16,-0.06l-0.83,-0.5l-0.84,-0.4l-0.06,-0.03l-0.42,0.09l-0.29,0.06l-0.35,0.08l-0.31,0.07l-0.31,0.07l-0.22,-0.07l-0.09,-0.23l-0.12,-0.32l-0.14,-0.39l-0.07,-0.19l-0.15,-0.43l-0.01,-0.02l-0.45,-1.24l-0.49,-0.05l-0.14,-0.01l-0.28,-0.03l-0.16,-0.19l-0.12,-0.2l-0.04,-0.21l-0.08,-0.26l-0.06,-0.27l-0.06,-0.29l-0.06,-0.41l-0.08,-0.32l-0.05,-0.34l-0.06,-0.36l-0.09,-0.31l-0.13,-0.35l-0.01,-0.29l-0.02,-0.27l-0.08,-1.66l-0.03,-0.06l-0.36,-0.8l-0.06,-0.13l-0.11,-0.25l-0.07,-0.2l0.09,-0.22l0.08,-0.21l0.02,-0.06l0.09,-0.2l0.1,-0.25l0.11,-0.28l0.14,-0.38l-0.01,-0.1l-0.01,-0.12l-0.12,-1.11l-0.03,-0.05l-0.76,-1.14l-0.43,-0.6l-0.16,-0.22l-0.86,-1.17l-1.45,-0.93l-0.79,-1.85l-0.61,-0.31l-0.41,-0.2l-0.05,-0.02l-0.18,-0.24l-0.19,-0.14l-0.17,-0.18l-0.12,-0.15l-0.17,-0.14l-0.09,-0.22l-0.08,-0.19l-0.09,-0.22l-0.13,-0.34l1.92,-1.81l0.17,-0.16l0.12,-0.1l0.16,-0.26l0.07,-0.14l0.06,-0.14l0.49,-1.03l0.36,-0.72l0.08,-0.16l0.08,-0.16l0.09,-0.18l0.08,-0.15l0.07,-0.15l0.26,-0.52l0.18,-0.2l1.12,-1.21l0.21,-0.09l0.14,-0.11l0.27,-0.19l-0.03,-0.34l0.29,-0.45l0.24,-0.26l0.2,-0.22l0.14,-0.04l0.68,-0.19l1.19,-0.27l0.79,-0.14l0.93,0l3.97,1.46l0.28,-0.02l0.21,-0.02l0.29,0.03l0.32,0.03l1.41,0.12l0.26,-0.04l0.24,0.01l0.3,0.05l0.22,-0.06l0.24,0.03l0.25,0.04l0.29,0.02l0.44,-0.18l0.15,-0.08l0.18,-0.1l0.36,-0.17l0.14,-0.07l0.24,-0.13l0.27,-0.14l0.05,-0.03l0.14,-0.06l0.25,-0.13l0.21,-0.11l0.22,-0.13l0.43,-0.29l0.34,-0.23l0.32,-0.21l0.27,-0.17l0.14,-0.16l0.2,-0.15l0.17,-0.16l0.31,0.48l0.14,0.2l0.14,0.22l0.14,0.22l0.14,0.21l0.33,0.51l0,0.93l-0.46,2.09l-0.06,0.29l-0.05,0.49l-0.03,0.27l-0.02,0.23l-0.02,0.22l-0.12,0.3l-0.09,0.33l-0.09,0.29l-0.2,0.72l0,0.27l-0.04,0.23l0.01,0.51l-0.04,0.37l-0.02,0.47l-0.03,0.39l-0.04,0.64l0.01,0.72l0.07,0.52l0.05,0.15l0.29,0.56l0.1,0.18l0.18,0.37l0.09,0.16l0.14,0.26l0.11,0.19l-0.14,0.79l0.14,0.54l0,0.66l0.02,0.14l-0.01,0.14l-0.01,0.39l0.4,0.26l0.14,0.4l-0.02,0.51l-0.02,0.38l-0.01,0.28l-0.01,0.31l-0.02,0.44l-0.06,1.52l0.05,0.54l0.21,2.24l0.07,0.27l0.09,0.37l0.24,1.08l0.8,0.67l0.66,0.79l0.27,0.39l0.13,0.67l0.05,0.17l0.09,0.3l0.13,0.45l0.27,0.67l-0.05,0.48l-0.09,0.84l-0.07,0.64l-0.07,0.68l0.27,1.05l0,0.7z" fill="#ff0000" id="svg_2"/>
   <path d="m229.19,58.23l-0.41,0.09l-0.43,-0.01l-0.38,-0.04l-0.16,-0.14l-0.15,-0.25l-0.1,-0.3l-0.09,-0.23l-0.18,-0.19l-0.29,-0.05l-0.32,-0.03l-0.42,-0.16l-0.26,-0.13l-0.37,-0.17l-0.18,-0.02l-0.18,-0.03l-0.29,-0.07l-0.29,-0.1l-0.13,-0.27l-0.06,-0.37l-0.07,-0.36l-0.07,-0.36l-0.15,-0.21l-0.25,-0.07l-0.32,0.02l-0.39,-0.01l-0.43,-0.02l-0.29,-0.03l-0.43,-0.34l-0.23,-0.26l-0.24,-0.37l-0.22,-0.34l-0.19,-0.33l-0.27,-0.5l-0.38,-0.71l-0.03,-0.33l-0.05,-0.38l-0.11,-0.3l-0.12,-0.35l-0.1,-0.4l-0.05,-0.39l-0.02,-0.39l-0.06,-0.46l-0.04,-0.46l-0.09,-0.47l-0.15,-0.51l-0.17,-0.31l-0.28,-0.41l-0.23,-0.22l-0.21,-0.34l-0.17,-0.3l-0.18,-0.32l-0.06,-0.32l0.06,-0.25l0.11,-0.26l0.14,-0.24l0.14,-0.18l0.16,-0.17l0.12,-0.17l-0.1,-0.25l-0.11,-0.3l-0.06,-0.31l-0.04,-0.22l0,-0.28l0.05,-0.19l0.08,-0.16l0.08,-0.18l0,-0.38l0.05,-0.23l-0.02,-0.28l-0.02,-0.19l0,-0.34l-0.01,-0.3l-0.1,-0.31l-0.05,-0.43l0.01,-0.37l0.04,-0.38l0.01,-0.3l-0.04,-0.32l-0.16,-0.25l-0.15,-0.32l0.12,-0.12l0.11,-0.1l0.1,-0.1l0.16,-0.1l0.14,-0.07l0.16,-0.07l0.23,-0.06l0.25,-0.01l0.29,0.07l0.19,0.03l0.15,0.03l0.15,0.02l0.17,0.01l0.19,0.03l0.26,0.06l0.58,0.14l0.12,0.06l0.61,0.22l0.36,0.09l0.25,0.1l0.25,0.06l0.34,0.11l0.31,0.13l0.27,0.13l0.17,0.09l0.29,0.14l0.22,0.11l0.18,0.1l0.14,0.11l0.24,0.13l0.26,0.14l0.32,0.24l0.24,0.4l0.14,0.1l0.13,0.07l0.26,0.09l0.22,0.02l0.19,0.04l0.16,0.1l0.25,0.2l0.13,0.14l0.08,0.26l0.14,0.33l-0.08,0.2l-0.24,0.02l-0.15,0.22l-0.13,0.17l-0.35,0.21l-0.16,0.2l-0.1,0.33l-0.14,0.2l-0.18,0.12l-0.28,0.15l-0.23,0.13l-0.18,0.17l-0.13,0.39l-0.06,0.3l-0.07,0.35l-0.01,0.22l-0.05,0.34l0.03,0.24l0.03,0.35l-0.01,0.19l-0.21,0.28l-0.15,0.24l-0.12,0.34l-0.17,0.38l-0.14,0.43l-0.05,0.34l0.01,0.54l-0.05,0.45l0,0.41l0.16,0.17l0.32,0.21l0.28,0.1l0.31,0.15l0.25,0.29l0.33,0.7l0.13,0.22l0.07,0.33l0.02,0.23l0.09,0.39l0.11,0.24l0.14,0.33l0.15,0.26l0.31,0.54l0.24,0.3l0.51,0.3l0.18,0.28l0.1,0.31l0.08,0.29l0.1,0.3l0.11,0.14l0.07,0.33l0.11,0.44l-0.04,0.28l-0.04,0.24l-0.06,0.21l-0.03,0.2l0.13,0.37l0.05,0.28l0.02,0.17l0.09,0.2l0.14,0.42z" fill="#ff0000" id="svg_3"/>
  </g>
 </g>
</svg>
